<svg width="263" height="305" viewBox="0 0 263 305" fill="none" xmlns="http://www.w3.org/2000/svg">
<g clip-path="url(#clip0_48_2)">
<path d="M223.95 92.29C223.33 86.14 222.72 82.45 221.49 79.37C223.95 73.83 225.8 67.68 225.8 59.68C225.8 46.76 220.26 33.22 209.8 23.38C199.34 12.3 178.42 0 139.04 0C43.07 0 0 68.91 0 132.28C0 196.27 42.45 223.34 76.29 244.25C101.51 260.86 121.82 273.17 121.82 296.55C121.82 298.4 122.44 300.86 124.28 302.7C125.51 303.93 127.36 304.55 130.43 304.55H131.05C164.27 302.7 227.64 283.63 227.64 228.26C227.64 220.26 226.41 214.72 223.95 209.19H238.1C240.56 209.19 243.64 207.96 244.87 206.11C249.18 199.34 251.64 193.19 251.64 185.19C251.64 179.65 251.02 175.96 249.79 172.89C255.33 166.74 262.71 154.43 262.71 135.98V135.36C263.32 114.43 235.64 98.44 223.95 92.29ZM138.43 287.93C134.12 260.86 110.13 246.09 85.52 230.1C51.68 209.18 16.61 187.03 16.61 131.66C16.61 51.68 80.6 15.38 140.27 15.38C173.49 15.38 190.72 25.84 199.33 34.45C206.71 41.83 210.4 51.06 210.4 58.44C210.4 60.9 209.78 63.98 209.78 65.82C203.63 63.36 195.63 60.28 182.71 60.28C169.79 60.28 159.95 62.74 153.79 63.97C147.64 58.43 135.33 50.43 121.8 50.43C98.42 50.43 83.66 68.27 83.66 84.88C83.66 102.72 95.35 111.95 105.19 116.26C108.27 171.63 156.26 188.24 185.79 198.09C193.79 200.55 202.4 204.24 204.25 206.09C207.94 209.78 212.86 215.93 212.86 227.01C212.26 272.55 158.73 284.86 138.43 287.93ZM235.64 164.27C232.56 166.73 231.95 171.04 233.18 174.11C233.18 174.11 235.64 179.65 235.64 185.18C235.64 188.26 235.02 191.33 234.41 193.18H212.26C210.41 191.95 208.57 190.72 206.11 190.1C206.11 189.48 206.73 188.87 206.73 188.25C206.73 188.25 207.35 182.71 212.88 177.18C215.96 174.1 215.96 168.57 212.88 165.49C209.8 162.41 204.27 162.41 201.19 165.49C193.81 172.87 191.96 179.64 190.73 183.95C161.2 174.11 121.21 160.57 121.21 111.35C121.21 107.66 118.75 103.97 114.44 103.35C113.21 102.73 99.67 99.66 99.67 86.12C99.67 78.12 107.67 67.66 121.2 67.66C133.5 67.66 145.19 79.96 145.19 79.96C147.04 82.42 151.34 83.04 154.42 81.81C154.42 81.81 166.11 77.5 182.72 77.5C195.64 77.5 203.64 81.19 206.1 83.04C206.72 85.5 207.95 91.04 207.95 97.19C207.95 100.27 209.8 103.34 212.26 104.57C223.33 108.88 237.48 118.11 243.64 126.72H231.95C227.64 126.72 223.95 130.41 223.95 134.72C223.95 139.03 227.64 142.72 231.95 142.72H245.49C243.64 156.89 236.25 163.65 235.64 164.27ZM191.34 91.67C183.34 86.13 170.42 91.05 163.04 94.13C159.35 95.98 156.89 100.9 158.73 104.59C160.57 108.28 165.5 110.74 169.19 108.9C172.88 107.06 177.8 105.82 180.88 105.82C182.11 108.28 184.57 109.51 188.26 109.51C192.57 109.51 196.26 105.82 196.26 101.51C196.26 97.82 194.42 93.52 191.34 91.67ZM113.2 76.91C109.51 78.76 107.05 83.68 108.89 87.37C110.74 91.06 115.66 93.52 119.35 91.68C119.35 91.68 125.5 89.83 129.81 95.37C131.04 97.83 133.5 98.45 136.58 98.45C137.81 98.45 139.66 97.83 140.89 97.22C144.58 94.76 145.2 89.22 142.74 86.15C133.51 72.6 119.36 73.83 113.2 76.91Z" fill="#FF7A00"/>
</g>
<defs>
<clipPath id="clip0_48_2">
<rect width="262.72" height="304.54" fill="white"/>
</clipPath>
</defs>
</svg>
